<?xml version="1.0" encoding="UTF-8"?>
<!DOCTYPE svg PUBLIC "-//W3C//DTD SVG 1.1//EN" "http://www.w3.org/Graphics/SVG/1.1/DTD/svg11.dtd">
<svg version="1.1" xmlns="http://www.w3.org/2000/svg" xmlns:xlink="http://www.w3.org/1999/xlink" x="0" y="0" width="797.5" height="627.5" viewBox="0, 0, 797.5, 627.5">
  <defs>
    <radialGradient id="Gradient_1" gradientUnits="userSpaceOnUse" cx="177.058" cy="165.616" r="63.566">
      <stop offset="0" stop-color="#FFF101"/>
      <stop offset="1" stop-color="#FFFFFE"/>
    </radialGradient>
    <clipPath id="Clip_1">
      <path d="M0,2.233 L797.4,2.233 L797.4,627.35 L0,627.35 z"/>
    </clipPath>
    <clipPath id="Clip_2">
      <path d="M0,2.233 L797.4,2.233 L797.4,627.35 L0,627.35 z"/>
    </clipPath>
    <radialGradient id="Gradient_2" gradientUnits="userSpaceOnUse" cx="367.365" cy="361.1" r="36.928">
      <stop offset="0" stop-color="#EA8C6F"/>
      <stop offset="1" stop-color="#F5C4AD"/>
    </radialGradient>
    <radialGradient id="Gradient_3" gradientUnits="userSpaceOnUse" cx="547.75" cy="379.708" r="36.928">
      <stop offset="0" stop-color="#EA8C6F"/>
      <stop offset="1" stop-color="#F5C4AD"/>
    </radialGradient>
  </defs>
  <g id="Layer_1">
    <path d="M235.008,113.257 L237.953,110.545 C214.483,85.092 178.883,77.49 148.203,88.457 C137.918,92.132 128.178,97.895 119.65,105.755 C94.173,129.247 86.555,164.865 97.525,195.552 C101.19,205.82 106.945,215.542 114.795,224.055 C125.773,235.975 139.425,243.76 153.94,247.532 C168.46,251.312 183.848,251.097 198.425,247.092 L197.368,243.235 L195.018,246.477 L247.465,284.462 L287.35,247.7 L253.773,192.335 L250.35,194.41 L254.113,195.78 C260.875,177.215 261.303,156.74 254.633,138.072 C251.098,128.177 245.565,118.802 237.953,110.545 L235.008,113.257 L232.065,115.97 C238.94,123.43 243.908,131.852 247.095,140.77 C253.1,157.567 252.745,176.145 246.588,193.037 L245.928,194.842 L277.108,246.25 L246.858,274.133 L198.158,238.867 L196.305,239.375 C183.043,243.017 169.065,243.197 155.955,239.787 C142.845,236.372 130.6,229.39 120.68,218.627 C113.573,210.912 108.38,202.135 105.063,192.857 C95.153,165.102 102.028,132.885 125.078,111.645 C132.808,104.522 141.598,99.32 150.895,95.997 C178.65,86.087 210.85,92.945 232.065,115.97 L235.008,113.257" fill="#B4B5B4"/>
    <path d="M236.527,145.138 C248.34,178.188 231.118,214.555 198.068,226.365 C165.015,238.175 128.648,220.96 116.835,187.91 C105.023,154.855 122.245,118.485 155.295,106.675 C188.35,94.863 224.717,112.085 236.527,145.138 z" fill="url(#Gradient_1)"/>
    <path d="M252.577,260.453 L207.753,218.67 L206.505,218.96 L206.212,219.025 C204.655,219.36 197.143,220.79 189.16,220 C185.17,219.613 181.08,218.673 177.552,216.868 C174.025,215.055 171.06,212.448 169.048,208.52 C168.45,207.353 167.965,206.223 167.575,205.135 C165.617,199.622 166.095,195.15 167.677,191.728 C169.265,188.31 172.067,185.938 174.85,184.952 C177.02,184.178 179.075,184.247 180.622,185.03 C183.592,186.525 187.115,188.59 190.025,190.825 C192.95,193.033 195.185,195.525 195.755,197.253 C195.995,197.945 196.02,198.45 195.915,198.908 C195.8,199.36 195.548,199.87 194.852,200.52 L194.31,200.86 C193.952,200.988 193.41,201.01 192.55,200.675 C191.283,200.188 189.572,198.857 188.048,196.973 C186.51,195.098 185.12,192.69 184.225,190.165 C183.325,187.663 182.912,185.053 183.165,182.713 C183.427,180.363 184.283,178.305 186.037,176.548 C187.02,175.573 188.05,174.945 189.16,174.543 C190.785,173.963 192.615,173.895 194.562,174.278 C197.473,174.84 200.577,176.463 203.085,178.533 C205.602,180.588 207.503,183.115 208.188,185.095 C208.512,185.99 208.585,186.74 208.507,187.273 C208.415,187.81 208.247,188.163 207.81,188.58 C207.322,189.033 206.908,189.265 206.585,189.38 C206.09,189.54 205.757,189.533 205.212,189.335 C204.405,189.045 203.232,188.06 202.137,186.458 C201.027,184.87 199.977,182.74 199.143,180.395 C197.835,176.747 197.037,172.575 197.022,169.103 C197.012,167.368 197.197,165.812 197.552,164.628 C197.897,163.43 198.397,162.65 198.882,162.247 C200.777,160.633 202.615,159.568 204.372,158.94 C206.43,158.208 208.375,158.055 210.277,158.357 C213.12,158.815 215.932,160.36 218.525,162.893 C221.11,165.42 223.435,168.92 225.225,173.07 C225.442,173.573 225.643,174.075 225.822,174.583 C228.072,180.85 227.622,187.488 226.54,192.57 C226.003,195.105 225.317,197.245 224.768,198.738 C224.497,199.478 224.26,200.06 224.092,200.45 L223.902,200.883 L223.855,200.982 L223.845,201.005 L223.18,202.388 L263.42,251.21 L267.125,248.155 L227.863,200.52 L226.01,202.045 L228.173,203.088 C228.225,202.967 230.045,199.185 231.238,193.565 C232.423,187.95 233.007,180.45 230.348,172.967 C230.13,172.365 229.895,171.765 229.637,171.165 C226.965,164.997 223.202,159.91 218.583,156.73 C216.27,155.15 213.732,154.05 211.045,153.618 C208.357,153.18 205.533,153.423 202.757,154.418 C200.378,155.268 198.035,156.658 195.762,158.592 C194.33,159.823 193.467,161.485 192.94,163.273 C192.158,165.967 192.07,169.075 192.397,172.31 C192.735,175.55 193.51,178.905 194.622,182.01 C195.897,185.56 197.567,188.77 199.712,191.11 C200.792,192.275 202.012,193.24 203.462,193.81 C204.902,194.388 206.625,194.48 208.2,193.903 C209.235,193.533 210.192,192.915 211.067,192.11 C212.298,190.993 213.052,189.482 213.26,187.963 C213.48,186.433 213.227,184.918 212.712,183.478 C211.17,179.28 207.452,175.323 202.897,172.528 C200.61,171.145 198.105,170.08 195.49,169.565 C192.882,169.05 190.145,169.092 187.542,170.02 C185.78,170.65 184.105,171.688 182.645,173.148 C180.05,175.725 178.725,178.958 178.387,182.202 C178.045,185.455 178.613,188.74 179.697,191.783 C181.17,195.878 183.565,199.553 186.32,202.155 C187.7,203.458 189.175,204.497 190.783,205.14 C192.363,205.775 194.182,206.005 195.927,205.383 C196.72,205.103 197.47,204.64 198.11,204.05 C199.355,202.908 200.235,201.52 200.587,200.013 C200.947,198.51 200.765,196.99 200.275,195.635 C199.025,192.275 196.19,189.54 192.952,187.018 C189.697,184.52 185.97,182.348 182.777,180.738 C179.802,179.25 176.37,179.308 173.235,180.428 C169.188,181.88 165.473,185.11 163.327,189.698 C161.175,194.278 160.7,200.21 163.05,206.75 C163.515,208.045 164.085,209.365 164.77,210.708 C167.44,215.943 171.635,219.42 176.225,221.565 C183.125,224.788 190.912,225.235 197,224.973 C203.09,224.695 207.505,223.663 207.6,223.64 L207.052,221.3 L205.415,223.058 L249.305,263.967 L252.577,260.453" fill="#8A8B8A"/>
    <path d="M232.737,275.612 L271.015,317.15 L318.017,273.832 L279.732,232.3 L232.737,275.612" fill="#8B6B46"/>
    <path d="M239.79,283.27 L244.132,287.98 L287.607,240.837 L283.265,236.128 L239.79,283.27" fill="#B4B5B4"/>
    <path d="M250.368,294.738 L254.71,299.458 L298.188,252.315 L293.84,247.6 L250.368,294.738" fill="#B4B5B4"/>
    <path d="M260.945,306.22 L265.288,310.935 L308.763,263.79 L304.418,259.075 L260.945,306.22" fill="#B4B5B4"/>
    <g clip-path="url(#Clip_1)">
      <path d="M108.028,95.292 L54.843,43.132 C51.335,39.692 45.703,39.747 42.265,43.255 C38.823,46.765 38.875,52.397 42.388,55.835 L95.573,107.995 C99.08,111.435 104.713,111.382 108.153,107.872 C111.59,104.365 111.538,98.735 108.028,95.292" fill="#E3672A"/>
      <path d="M66.65,121.393 L10.343,112.135 C5.49,111.338 0.918,114.622 0.12,119.47 C-0.677,124.318 2.608,128.898 7.455,129.69 L63.763,138.947 C68.61,139.745 73.188,136.46 73.982,131.613 C74.783,126.765 71.498,122.19 66.65,121.393" fill="#E3672A"/>
      <path d="M138.08,65.31 L126.308,9.3 C125.298,4.493 120.58,1.413 115.772,2.425 C110.965,3.435 107.885,8.15 108.895,12.96 L120.67,68.967 C121.678,73.778 126.397,76.853 131.202,75.842 C136.012,74.833 139.092,70.115 138.08,65.31" fill="#E3672A"/>
    </g>
    <path d="M405.982,190.065 C405.982,190.065 363.907,215.107 363.907,243.475 C363.907,271.842 355.41,276.383 348.392,289.013 C331.905,318.69 313.862,357.788 345.585,419.525 C377.277,481.29 468.38,490.397 468.38,490.397 L465.572,531.792 L407.775,550.885 C407.775,550.885 413.095,582.345 479.402,592.003 C530.667,599.492 579.535,555.568 579.535,555.568 C579.535,555.568 539.412,545.167 536.443,525.48 C533.855,508.323 532.938,484.078 532.938,484.078 C532.938,484.078 561.557,482.795 593.28,464.43 C624.972,446.07 673.805,431.69 681.818,367.295 C689.825,302.867 667.675,241.798 572.86,203.425 C478.072,165.025 405.982,190.065 405.982,190.065" fill="#F5C4AD"/>
    <path d="M430.49,387.247 C430.49,387.247 453.592,440.408 478.908,435.66 C512.585,429.35 507.675,378.125 507.675,378.125 L430.49,387.247" fill="#E78186"/>
    <path d="M401.132,319.962 C408.062,320.96 415.135,311.792 416.917,299.475 C418.705,287.16 414.53,276.367 407.6,275.365 C400.662,274.36 393.6,283.522 391.81,295.835 C390.027,308.152 394.2,318.952 401.132,319.962" fill="#414241"/>
    <path d="M515.1,336.483 C522.03,337.483 529.1,328.315 530.883,315.998 C532.675,303.69 528.492,292.89 521.562,291.888 C514.63,290.883 507.56,300.043 505.778,312.36 C503.99,324.678 508.17,335.478 515.1,336.483" fill="#414241"/>
    <path d="M417.242,150.85 C417.242,150.85 374.075,131.128 339.972,169.025 C294.905,219.098 361.022,261.645 361.022,261.645 C361.022,261.645 360.917,233.128 385.95,206.76 C407.432,184.133 429.347,188.398 429.347,188.398 C429.347,188.398 433.292,216.373 449.03,236.47 C472.59,266.558 497.147,270.065 497.147,270.065 C497.147,270.065 478.905,264.453 478.202,232.878 C477.84,216.423 490.835,192.18 490.835,192.18 C490.835,192.18 491.702,241.843 562.86,285.535 C591.395,303.058 622.277,306.065 622.277,306.065 L628.787,383.673 C628.787,383.673 647.562,348.625 664.332,372.658 C677.022,390.845 656.32,420.878 636.297,421.22 C623.095,421.448 624.347,416.213 624.347,416.213 C624.347,416.213 604.378,439.54 588.572,454.19 C570.03,471.378 530.902,480.988 530.74,482.033 C528.74,495.553 554.472,510.7 565.012,514.16 C616.232,531.008 662.337,488.815 662.337,488.815 C662.337,488.815 639.17,507.37 624.152,491.1 C609.13,474.825 636.297,459.523 653.822,449.763 C671.342,439.995 720.917,399.943 721.407,348.625 C722.415,243.483 671.342,239.723 671.342,239.723 C671.342,239.723 667.375,193.658 636.082,171.128 C604.792,148.6 573.702,132.075 509.867,125.818 C446.037,119.55 417.242,150.85 417.242,150.85" fill="#755337"/>
    <g clip-path="url(#Clip_2)">
      <path d="M770.675,394.807 C770.675,394.807 728.532,320.985 702.015,294.168 C689.535,281.54 666.527,262.108 658.51,257.16 C647.467,250.34 642.657,260.2 649.417,267.14 C669.872,288.115 676.812,301.953 676.812,301.953 C676.812,301.953 670.877,297.16 657.62,308.205 C644.36,319.253 647.125,342.038 651.857,351.503 C656.59,360.975 662.085,332.318 662.085,332.318 C662.085,332.318 668.367,350.897 674.137,358.438 C681.692,368.302 700.067,363.307 700.067,363.307 L723.922,415.4 L770.675,394.807" fill="#F5C4AD"/>
      <path d="M602.645,555.71 C636.53,550.865 660.725,537.96 711.552,501.675 C732.913,486.402 709.225,396.97 709.225,396.97 L770.21,369.387 C770.21,369.387 799.432,433.052 797.307,482.872 C792.213,602.492 645.403,626.695 645.403,626.695 L602.645,555.71" fill="#3B99C8"/>
      <path d="M565.55,546.035 C565.55,546.035 588.13,546.035 609.91,558.13 C631.695,570.235 647.82,627.5 647.82,627.5 L349.375,627.5 C349.375,627.5 357.44,584.742 379.223,565.392 C400.998,546.035 415.52,543.615 415.52,543.615 C415.52,543.615 433.42,574.752 473.585,578.297 C528.443,583.135 565.55,546.035 565.55,546.035" fill="#3B99C8"/>
    </g>
    <path d="M406.982,286.908 C406.982,289.815 404.627,292.17 401.72,292.17 C398.812,292.17 396.457,289.815 396.457,286.908 C396.457,284.003 398.812,281.645 401.72,281.645 C404.627,281.645 406.982,284.003 406.982,286.908" fill="#FFFFFE"/>
    <path d="M521.355,305.853 C521.355,308.758 519,311.115 516.095,311.115 C513.185,311.115 510.832,308.758 510.832,305.853 C510.832,302.948 513.185,300.59 516.095,300.59 C519,300.59 521.355,302.948 521.355,305.853" fill="#FFFFFE"/>
    <path d="M441.015,321.29 C441.015,321.29 441.72,330.41 434.7,337.428 C427.682,344.445 424.175,345.148 424.175,345.148 L441.015,359.18 C441.015,359.18 426.212,360.518 420.665,354.97 C414.35,348.653 417.86,345.148 417.86,345.148 C417.86,345.148 428.385,338.13 432.595,333.218 C436.807,328.308 441.015,321.29 441.015,321.29" fill="#EB9073"/>
    <path d="M391.897,250.42 C391.897,250.42 398.212,239.192 411.545,242.702 C424.875,246.207 422.77,262.348 422.77,262.348 M503.465,270.77 C503.465,270.77 506.27,253.225 523.81,253.927 C541.355,254.627 543.46,272.172 543.46,272.172" fill-opacity="0" stroke="#414241" stroke-width="4.82" stroke-linecap="round" stroke-linejoin="round"/>
    <path d="M404.293,361.095 C404.293,381.49 387.76,398.027 367.368,398.027 C346.97,398.027 330.438,381.49 330.438,361.095 C330.438,340.703 346.97,324.17 367.368,324.17 C387.76,324.17 404.293,340.703 404.293,361.095 z" fill="url(#Gradient_2)"/>
    <path d="M584.675,379.708 C584.675,400.098 568.148,416.638 547.753,416.638 C527.358,416.638 510.823,400.098 510.823,379.708 C510.823,359.312 527.358,342.78 547.753,342.78 C568.148,342.78 584.675,359.312 584.675,379.708 z" fill="url(#Gradient_3)"/>
    <path d="M432.595,146.568 C432.595,146.568 412.948,126.22 379.968,128.325 C354.72,129.938 330.85,157.798 330.85,157.798 C330.85,157.798 356.11,135.345 377.16,139.553 C398.21,143.762 415.053,156.393 415.053,156.393" fill="#755337"/>
    <path d="M491.318,196.602 C491.318,196.602 485.088,226.425 493.14,243.505 C501.36,260.945 521.083,265.638 521.083,265.638 C521.083,265.638 502.765,257.438 501.36,238.49 C500.413,225.723 510.483,211.125 510.483,211.125" fill="#755337"/>
  </g>
</svg>
