<?xml version="1.0" encoding="UTF-8" standalone="no"?>
<svg
   xmlns:dc="http://purl.org/dc/elements/1.1/"
   xmlns:cc="http://creativecommons.org/ns#"
   xmlns:rdf="http://www.w3.org/1999/02/22-rdf-syntax-ns#"
   xmlns:svg="http://www.w3.org/2000/svg"
   xmlns="http://www.w3.org/2000/svg"
   xmlns:sodipodi="http://sodipodi.sourceforge.net/DTD/sodipodi-0.dtd"
   xmlns:inkscape="http://www.inkscape.org/namespaces/inkscape"
   id="svg4147"
   height="533"
   viewBox="0 0 500 533"
   width="500"
   version="1.1"
   inkscape:version="0.91 r13725"
   sodipodi:docname="Spaceman-colour.svg">
  <metadata
     id="metadata4844">
    <rdf:RDF>
      <cc:Work
         rdf:about="">
        <dc:format>image/svg+xml</dc:format>
        <dc:type
           rdf:resource="http://purl.org/dc/dcmitype/StillImage" />
      </cc:Work>
    </rdf:RDF>
  </metadata>
  <defs
     id="defs4842">
    <filter
       inkscape:collect="always"
       style="color-interpolation-filters:sRGB"
       id="filter5417"
       x="-0.21577132"
       width="1.4315426"
       y="-0.11495842"
       height="1.2299168">
      <feGaussianBlur
         inkscape:collect="always"
         stdDeviation="10.376972"
         id="feGaussianBlur5419" />
    </filter>
    <filter
       inkscape:collect="always"
       style="color-interpolation-filters:sRGB"
       id="filter5539"
       x="-0.37325213"
       width="1.7465043"
       y="-0.30749892"
       height="1.6149978">
      <feGaussianBlur
         inkscape:collect="always"
         stdDeviation="9.5594113"
         id="feGaussianBlur5541" />
    </filter>
    <filter
       inkscape:collect="always"
       style="color-interpolation-filters:sRGB"
       id="filter5579"
       x="-0.27902525"
       width="1.5580505"
       y="-0.10596668"
       height="1.2119334">
      <feGaussianBlur
         inkscape:collect="always"
         stdDeviation="7.2478709"
         id="feGaussianBlur5581" />
    </filter>
    <filter
       inkscape:collect="always"
       style="color-interpolation-filters:sRGB"
       id="filter5638"
       x="-1.8050731"
       width="4.6101461"
       y="-0.4440809"
       height="1.8881618">
      <feGaussianBlur
         inkscape:collect="always"
         stdDeviation="22.605009"
         id="feGaussianBlur5640" />
    </filter>
  </defs>
  <sodipodi:namedview
     pagecolor="#ffffff"
     bordercolor="#666666"
     borderopacity="1"
     objecttolerance="10"
     gridtolerance="10"
     guidetolerance="10"
     inkscape:pageopacity="0"
     inkscape:pageshadow="2"
     inkscape:window-width="1916"
     inkscape:window-height="1035"
     id="namedview4840"
     showgrid="false"
     inkscape:zoom="1.0834071"
     inkscape:cx="250"
     inkscape:cy="289.25949"
     inkscape:window-x="4"
     inkscape:window-y="1"
     inkscape:window-maximized="1"
     inkscape:current-layer="svg4147" />
  <g
     id="g5644">
    <path
       inkscape:connector-curvature="0"
       id="path5386"
       d="m 143.95379,452.77279 -21.62152,-3.41392 -11.37975,10.81076 -1.70696,23.89746 22.75949,31.2943 16.50063,11.94874 17.63861,2.84493 10.81076,-5.12088 10.24177,-17.06962 19.34557,-36.41519 11.94873,-21.05253 28.44937,-18.77658 23.32848,-8.53481 25.60442,-2.27595 30.15633,7.39684 16.50063,6.25886 21.05253,15.93164 14.22468,18.77658 12.51773,12.51772 11.37974,0.56899 18.20759,-9.67278 17.63861,-27.31139 7.96582,-35.27722 -5.68987,-13.0867 -13.6557,-6.82785 -11.94873,-2.27595 -14.79367,5.68987 -5.12088,0 -16.50064,-25.60443 -10.81075,-13.65569 -14.79367,-10.24177 -7.39684,-3.41393 -2.27595,-26.7424 1.13798,-22.1905 -2.27595,0.56898 17.06962,-9.67278 60.88164,-42.67405 22.1905,-17.06962 10.81076,-14.22468 3.41392,-15.93164 21.05253,-5.68988 17.06962,-17.06962 3.98291,-14.79366 -9.10379,-19.91456 -9.67279,-14.22468 -9.67278,-5.12089 -8.53481,2.27595 -6.82785,6.82785 -9.10379,6.82785 -3.41393,-4.5519 -9.10379,-6.82785 -5.12089,2.27595 -0.56899,14.22468 0.56899,21.05253 3.98291,14.22468 -21.62152,6.25886 -17.6386,10.24178 -27.31139,16.50063 -14.22469,6.25886 5.12089,-9.67279 6.25886,-28.44936 5.12089,-10.81076 11.94873,-10.24177 6.25886,-9.67279 L 372.68668,93.741807 350.49617,44.239913 333.99554,22.618395 307.25314,11.807637 270.83795,3.2728272 232.7158,7.2557382 182.07593,18.635484 l -21.05253,21.05253 -19.91455,30.725314 -9.67278,25.035441 -4.5519,14.793671 -13.6557,15.93164 -2.27595,8.53481 11.37975,30.15633 27.31139,40.96708 21.05253,26.17342 -24.46645,-6.82785 -35.27722,-11.37974 -33.570248,-6.82785 -2.844936,-0.56899 -3.982911,-29.01835 -3.413924,-15.93164 -1.706962,-4.5519 -10.241771,10.24177 -7.396835,7.96582 -14.79367,-5.68987 -19.914555,10.81076 -8.5348096,24.46645 3.4139237,25.03544 11.3797459,4.5519 29.018352,1.13797 15.362657,1.13798 3.413924,18.77658 5.689873,5.68987 25.604428,9.1038 48.932908,11.37975 33.00126,6.82784 8.53481,42.67405 6.82785,26.17342 -10.81076,9.67278 -20.48354,33.57025 -14.22468,32.43228 -1.70697,13.0867 -2.27594,7.96583 z"
       style="fill:#f8f8f8;fill-rule:evenodd;stroke:none;stroke-width:1px;stroke-linecap:butt;stroke-linejoin:miter;stroke-opacity:1;fill-opacity:1" />
    <path
       inkscape:connector-curvature="0"
       id="path5421"
       d="m 233.2848,410.66773 c -11.17243,5.77109 -19.11928,15.61872 -26.95148,25.13771 -6.38735,7.09666 -14.91239,13.47653 -16.27598,23.59251 -3.80079,7.89021 -12.37479,16.91997 -6.01806,25.87999 7.00446,0.0352 12.24168,-10.18332 15.81337,-16.16268 0.46761,-8.45203 6.05835,-13.61064 13.05015,-17.04574 5.08351,-5.50724 11.82041,-8.88997 17.11132,-14.2352 5.89363,-4.79564 10.12185,-11.7274 13.0286,-18.4995 1.78896,-6.97352 -9.9027,-2.43454 -9.75792,-8.66709 z"
       style="fill:#c5d5e5;fill-opacity:1;fill-rule:evenodd;stroke:none;stroke-width:1px;stroke-linecap:butt;stroke-linejoin:miter;stroke-opacity:1;filter:url(#filter5539)" />
    <path
       inkscape:connector-curvature="0"
       id="path5388"
       d="m 134.281,462.44558 -11.94873,-4.5519 -6.82785,1.13797 -6.82785,31.2943 18.77658,26.17342 24.46646,12.51772 19.91455,-2.27595 1.70697,-3.41392 -7.96583,-19.34557 -9.67278,-18.2076 -11.37975,-14.22468 -7.96582,-9.10379 z"
       style="fill:#ebe8e8;fill-rule:evenodd;stroke:none;stroke-width:1px;stroke-linecap:butt;stroke-linejoin:miter;stroke-opacity:1;fill-opacity:1" />
    <path
       inkscape:connector-curvature="0"
       id="path5390"
       d="m 432.43035,393.02913 -18.2076,12.51772 -15.36266,35.8462 -6.25886,27.31139 1.70697,11.37974 6.82784,1.13798 18.2076,-10.81076 11.94873,-15.36266 11.37975,-28.44936 2.27595,-23.89747 -5.68988,-7.39684 -3.41392,-3.41392 z"
       style="fill:#ebe8e8;fill-rule:evenodd;stroke:none;stroke-width:1px;stroke-linecap:butt;stroke-linejoin:miter;stroke-opacity:1;fill-opacity:1" />
    <path
       inkscape:connector-curvature="0"
       id="path5392"
       d="m 429.58541,117.63927 -3.41393,6.25886 1.70697,23.89747 1.70696,17.63861 1.13797,7.39683 13.6557,5.68987 6.82785,9.1038 2.84493,10.24177 11.94874,-5.68987 17.06961,-10.81076 8.53481,-11.94873 3.41393,-10.81076 -1.70696,-14.22468 -11.37975,-18.2076 -14.79367,-9.67278 -7.39683,2.84494 -7.39684,8.53481 -6.25886,3.98291 -5.12089,-3.98291 -4.55189,-6.25887 -2.27595,-2.84493 z"
       style="fill:#ebf1f4;fill-rule:evenodd;stroke:none;stroke-width:1px;stroke-linecap:butt;stroke-linejoin:miter;stroke-opacity:1;fill-opacity:1" />
    <path
       inkscape:connector-curvature="0"
       id="path5394"
       d="m 74.537336,206.97028 c 0,-3.41392 -3.413924,-29.01835 -3.413924,-29.01835 l -5.689873,-18.2076 -2.275949,-1.13797 -9.672784,8.53481 -5.120886,7.39683 -13.086708,-4.5519 -8.534809,0.56899 -17.6386063,10.81076 -6.2588602,26.17342 1.7069619,19.34556 5.6898726,9.1038 36.415187,1.70696 17.069619,-1.13797 3.413924,-11.94873 4.551898,-12.51773 z"
       style="fill:#ebf1f4;fill-rule:evenodd;stroke:none;stroke-width:1px;stroke-linecap:butt;stroke-linejoin:miter;stroke-opacity:1;fill-opacity:1" />
    <path
       inkscape:connector-curvature="0"
       id="path5396"
       d="m 265.14808,278.66268 -5.68987,5.12088 2.27595,5.68988 5.68987,1.13797 5.12088,-2.84493 2.27595,-2.84494 -2.27595,-2.27595 -1.70696,-3.98291 -1.13797,-1.13798 -4.5519,-1.13797 z"
       style="fill:#d7a498;fill-rule:evenodd;stroke:none;stroke-width:1px;stroke-linecap:butt;stroke-linejoin:miter;stroke-opacity:1;fill-opacity:1" />
    <path
       inkscape:connector-curvature="0"
       id="path5398"
       d="m 277.6658,309.38799 -7.39683,-2.27595 -3.41393,1.13798 -2.27595,5.12088 1.13798,5.68988 7.39683,2.27595 3.41393,-1.13798 2.27595,-1.70696 1.13797,-4.5519 z"
       style="fill:#a4c69b;fill-rule:evenodd;stroke:none;stroke-width:1px;stroke-linecap:butt;stroke-linejoin:miter;stroke-opacity:1;fill-opacity:1" />
    <path
       inkscape:connector-curvature="0"
       id="path5400"
       d="m 393.17022,397.01204 c -9.15714,-10.97464 -18.31915,-21.87338 -28.411,-31.97902 -8.67352,-10.81552 -14.78731,-22.4325 -26.49509,-28.95947 0.94695,-15.36453 -7.17281,-31.34096 -1.8038,-45.4712 16.25945,-15.44842 37.95196,-24.17103 54.75412,-39.03666 13.01887,-15.78834 39.79161,-16.98292 48.61273,-37.76756 4.52415,-12.09079 -2.1755,-29.66811 -16.46844,-17.57607 -8.67452,12.54659 -21.49658,21.98594 -30.18852,34.64569 -7.87499,10.89119 -21.02036,17.29266 -31.51222,24.85383 -9.79378,5.13046 -22.02252,12.43215 -26.29043,-4.36892 -10.07424,-20.23743 -10.04291,13.27918 -8.57347,21.92954 2.96669,18.833 -4.84867,38.08001 1.72749,56.92807 4.26087,15.14961 8.46647,31.38538 17.73494,44.04744 14.2082,9.6609 27.81295,44.66463 47.01903,31.69171 1.03914,-5.67605 2.51164,-6.21328 -0.10534,-8.93738 l 0,0 z"
       style="fill:#c5d5e5;fill-opacity:1;fill-rule:evenodd;stroke:none;stroke-width:1px;stroke-linecap:butt;stroke-linejoin:miter;stroke-opacity:1;filter:url(#filter5417)" />
    <path
       inkscape:connector-curvature="0"
       id="path5545"
       d="m 344.8063,39.119027 c 11.38902,13.42875 11.65034,32.455051 21.85894,46.571351 5.75903,9.965568 1.13673,22.596142 7.36163,32.441632 3.51349,8.93812 7.45143,19.31884 3.31384,28.71928 -7.42552,11.83571 -15.69428,23.87645 -17.75654,38.02026 -5.60044,-0.3159 -1.69666,-10.61077 -1.6703,-14.83381 2.01912,-6.97826 1.34817,-14.16496 0.60815,-21.29768 -1.0446,-11.89959 -3.26563,-23.70486 -2.99144,-35.68043 -0.46254,-9.37578 -1.97385,-18.677908 -4.14168,-27.803787 -6.50852,-9.887947 -13.59653,-20.115531 -15.11154,-32.163526 -3.73099,-11.501525 -16.78354,-17.200724 -19.5049,-29.213492 4.40604,-6.77589 12.79224,-1.18219 16.80667,3.048555 4.30513,4.039812 8.01601,8.648456 12.07079,12.927149 l -0.84362,-0.735502 z"
       style="fill:#c5d5e5;fill-opacity:1;fill-rule:evenodd;stroke:none;stroke-width:1px;stroke-linecap:butt;stroke-linejoin:miter;stroke-opacity:1;filter:url(#filter5579)" />
    <path
       d="m158.35 531.85c-18.51-2.9-40.8-20.1-49.89-38.49-12.916-26.15 4.41-52.69 30.07-46.08l3.0335 0.7819 2.7973-8.7819c12.84-40.31 28.621-69.931 43.321-81.315l3.1856-2.4669-2.4684-8.4768c-2.2272-7.6483-6.0412-26.938-9.5898-48.5l-1.31-7.97-14.5-3.27c-7.975-1.7967-26.65-5.7268-41.5-8.7338-47.092-9.54-59.02-16.1-61.94-34.05l-0.65069-4-19.704-0.0194c-33.623-0.03-40.146-5.12-38.946-30.36 1.4374-30.25 22.276-52.54 40.446-43.27l4.0476 2.0649 6.4572-6.4572c14.06-14.06 21.43-5.5526 24.293 28.043 1.04 12.202 1.527 14.426 3.0319 13.848 4.9775-1.91 39.06 5.8153 66.237 15.013l16.271 5.5072-4.3813-5.1845c-45.76-54.15-59.186-84.77-44.13-100.67 9.3-9.81 13.62-18.27 20.96-41.01 17.12-53.068 63.01-78.671 138.67-77.368 15.71 0.2703 46.45 10.076 59.53 18.989 16.37 11.158 30.49 35.325 43.75 74.879 15.581 46.486 15.367 56.088-1.5004 67.543-6.5185 4.4266-6.4793 4.3482-7.8794 15.78-1.1719 9.5687-2.3464 14.353-5.101 20.779-1.0761 2.5105-1.619 4.4145-1.2064 4.2311 0.41261-0.18337 6.1502-3.9787 12.75-8.4341 20.353-13.739 35.618-21.632 48.152-24.897 3.1082-0.80958 5.7917-1.6124 5.9634-1.7842 0.1717-0.17171-0.58475-4.5661-1.681-9.7653-7.7167-36.597 1.207-54.837 17.133-35.02l3.2558 4.0514 5.162-4.882c13.91-13.156 21.78-12.058 35.696 4.9813 22.494 27.541 15.142 51.176-21.681 69.698-5.8155 2.9252-6.053 3.2014-7.723 8.9828-3.6081 12.491-13.078 21.824-41.777 41.173-9.625 6.489-22.68 15.815-29.011 20.724-15.478 12.001-28.8 21.511-35.52 25.357-3.9654 2.2688-5.409 3.643-5.0706 4.827 1.8157 6.3532 2.8222 18.71 2.3331 28.641l-0.56036 11.378 2.8698 1.0004c11.238 3.9174 27.567 20.641 42.428 43.452 3.159 4.8489 6.2583 8.5973 6.8874 8.3298 16.545-7.0362 17.924-7.2641 29-4.7923 25.119 5.6057 26.1 38.025 2.2577 74.602-18.998 29.146-35.163 32.887-53.083 12.284-22.94-26.38-33.27-33.83-57.53-41.55-56.968-18.106-101.61 10.999-133.26 86.878-4.4404 10.646-15.169 15.853-28.394 13.779zm10.529-7.9587 3.1743-1.1066-4.5935-8.6434c-17.245-32.449-44.637-60.147-51.427-52.001-16.999 20.396 26.309 71.002 52.846 61.751zm13.65-19.082c0.73914-5.3742-0.34695-7.3373-12.704-22.963-14.735-18.633-28.864-28.546-39.427-27.664l-3.7735 0.31537 6.5789 4.2429c12.474 8.0446 26.669 25.423 39.376 48.204l5.8268 10.446 1.7384-3.9402c0.95613-2.1671 2.0294-6.0556 2.3849-8.641zm9.755-16.312c1.4836-3.0251 4.9525-9.136 7.7086-13.58l5.0111-8.0796-5.9501-8.6703c-14.281-20.81-24.236-29.367-36.677-31.528-1.7397-0.30214-3.8398-0.0106-4.7342 0.6573-1.3794 1.0301-10.206 23.654-9.421 24.147 9.381 5.8952 25.214 21.76 34.422 34.491 6.9301 9.5819 6.2828 9.4099 9.6413 2.5621zm212.87-12.578c21.902-11.174 42.486-63.605 30.459-77.587l-2.3196-2.6966-4.5574 2.6708c-13.656 8.0031-25.391 30.232-31.259 59.215-4.2608 21.043-3.0756 23.884 7.6773 18.398zm-16.72-13.92c2.97-23.754 14.497-50.054 27.784-63.391l6.865-6.8911-4.7647 0.65307c-25.157 3.4482-42.966 37.015-35.789 67.457 2.8409 12.051 4.5894 12.694 5.905 2.1719zm-166.01-15.5c4.4543-4.4 11.357-10.217 15.34-12.927 3.9827-2.7096 7.2413-5.3321 7.2413-5.8278 0-3.9506-23.301-31.104-31.577-36.799-8.0768-5.557-29.496-12.284-33.825-10.623-1.82 0.7-20.6 38.16-20.6 41.09 0 0.1788 2.0421 0.55527 4.538 0.8366 12.016 1.3544 27.695 14.44 38.513 32.144l5.3477 8.7512 3.4606-4.3233c1.9033-2.3778 7.105-7.9233 11.559-12.323zm151.17-1.7522c0.12697-15.872 4.5266-30.656 12.063-40.538 4.942-6.4794-9.4444-0.84885-20.721 8.1096-7.1327 5.6665-17.27 21.463-14.782 23.036 3.768 2.3824 12.705 9.9117 17.318 14.591 3.2828 3.3296 5.9828 6.0528 6 6.0516 0.0172-0.001 0.0718-5.0637 0.12128-11.25zm-26.332-16.611c4.6899-13.205 24.867-30.006 39.282-32.71 4.6551-0.87331 4.5318-1.3349-3.7269-13.95-12.615-19.268-28.344-33.157-34.61-30.561-21.7 8.9884-40.162 68.107-22.971 73.557 2.8972 0.91847 8.4176 3.1742 12.268 5.0127 3.85 1.8385 7.2319 3.3814 7.5153 3.4286 0.28341 0.0473 1.2926-2.1026 2.2427-4.7776zm-88.565-5.0804c15.663-5.2359 31.003-6.3963 46.807-3.5408 4.4 0.79499 8.1401 1.4543 8.3113 1.4651s0.0231-1.902-0.32911-4.2507c-2.9258-19.511 14.296-59.851 28.884-67.658 8.1106-4.3407 2.5273-3.688-12.068 1.4106-43.729 15.276-83.435 19.163-131.57 12.878-4.7351-0.61829-4.8114-0.58217-10.25 4.8565-6.9739 6.9739-6.963 7.0168 2.2706 8.9523 22.095 4.6314 37.994 16.202 52.392 38.13 3.2217 4.9063 5.8576 9.3214 5.8576 9.8112 0 1.2139-0.22155 1.2609 9.6931-2.0534zm10.8-65.62c11.197-1.939 33.705-7.4034 34.858-8.463 1.8319-1.6827-13.081-83.028-15.702-85.649-0.21154-0.21154-6.4083 0.72484-13.771 2.0808-38.88 7.1611-72.182 7.4244-87.404 0.69091-6.0292-2.667-5.7944-5.1966-1.987 21.405 7.5208 52.547 11.516 68.405 17.281 68.585 1.4984 0.047 10.824 0.6622 20.724 1.3671 25.122 1.7887 35.593 1.7847 46-0.0175zm-60.172-8.5338c-4.1378-1.1977-5.0336-3.9519-10.817-33.256-5.62-28.5-5.84-25.65 1.92-25.65 3.539 0 9.608-0.66755 13.487-1.4834 10.019-2.1075 22.67-2.3564 24.53-0.4825 5.7237 5.7665 10.654 52.588 6.0247 57.217-4.3531 4.3531-25.231 6.5214-35.149 3.6504zm29.517-5.481 3.4552-1.4437-0.63165-9.2383c-2.9357-42.937-3.6232-43.629-37.751-37.995l-4.5827 0.75651 3.7565 19.232c5.7185 29.277 6.0036 30.058 11.17 30.594 6.9506 0.72178 20.879-0.35806 24.583-1.9059zm27.5-20.42c-5.1461-2.0762-4.9738-13.193 0.28102-18.13 4.1608-3.9088 15.369 2.6869 15.369 9.0444 0 6.5832-8.9592 11.784-15.65 9.0851zm9.6039-5.451c1.8781-2.2629 0.91192-6.055-1.5427-6.055-1.1486 0-2.8361-0.6176-3.75-1.3724-2.0062-1.6571-4.6616 0.008-4.6616 2.9223 0 4.0441 7.5145 7.445 9.9543 4.5052zm-15.837-26.438c-3.5045-3.5045-2.5351-11.509 1.7965-14.835 6.6292-5.0897 17.339 8.5598 11.127 14.181-3.1556 2.8558-10.357 3.22-12.924 0.6536zm7.9489-3.1521c2.5886-1.3854 2.4489-4.4909-0.28825-6.4081-3.0174-2.1134-3.6672-1.9769-4.8024 1.0088-1.7624 4.6354 1.0146 7.5808 5.0906 5.3994zm55.981 55.843c15.94-4.67 19.75-15.14 14.5-39.81-4.2025-19.746-8.9432-46.917-10.032-57.5-1.1173-10.855-1.0765-10.777-4.6348-8.9367-35.092 18.147-105.58 20.61-138.29 4.8321-2.72-1.32-5.16-2.4-5.41-2.4-1.5059 0 1.1498 15.712 2.9865 17.669 9.0016 9.5934 36.764 10.749 87.615 3.6468 16.733-2.337 19.454-2.5025 20.622-1.2541 3.3087 3.535 7.8229 22.579 13.551 57.166 2.2107 13.349 4.279 25.772 4.5962 27.605 0.42705 2.4683 0.97552 3.1806 2.1131 2.744 0.84498-0.32425 6.4198-2.0206 12.389-3.7697zm33.46-64.9c5.5-3.74 11.558-8.1107 13.462-9.7126l3.4619-2.9125-3.3687-9.8914c-4.7448-13.932-8.5468-21.386-14.734-28.887-6.3208-7.663-5.7551-7.538-11.94-2.6379-2.6844 2.1265-5.9508 4.2002-7.2588 4.608-3.1726 0.98938-1.6318 17.959 4.5619 50.241 1.8456 9.6197 0.37119 9.695 15.816-0.8077zm-183.27-16.16c-1.26-10.59-2.52-20.68-2.79-22.42-0.46-2.89-12.48-9.33-17.42-9.33-1.5797 0-4.2852 17.726-4.7625 31.203l-0.48533 13.703 2.3622 0.53442c1.2992 0.29393 6.6372 1.6016 11.862 2.9059 15.267 3.8112 13.906 5.823 11.232-16.596zm-30.23 2.88c0-7.8454 2.7537-28.747 4.5876-34.823 0.42475-1.4071-2.0739-2.5275-14.788-6.6308-23.37-7.5422-20.988-7.6758-24.762 1.3896-6.1992 14.891-9.2406 40.913-4.8917 41.853 1.9897 0.43005 36.871 7.0806 39.105 7.4557 0.4125 0.0693 0.75-4.0907 0.75-9.2445zm-46.598-2.88c0.27086-1.7875 0.75018-7.2695 1.0652-12.182 0.64596-10.075 2.445-17.879 6.2676-27.187 3.1451-7.6585 3.8028-6.9039-8.1634-9.366-18.907-3.8902-21.514-3.2159-24.454 6.3248-7.9287 25.732-3.3641 36.905 17.883 43.775 7.1741 2.3194 6.8342 2.3821 7.4019-1.3643zm291.34-7.0807c5.3658-4.0319 13.939-9.9531 19.051-13.158 10.624-6.6613 10.081-4.644 5.5248-20.511-3.4171-11.9-16.271-30-21.305-30-1.2922 0-32.158 20.665-37.221 24.92-0.38868 0.32664 1.7854 3.5159 4.8312 7.0872 6.6109 7.7514 9.84 13.882 14.878 28.243 2.0739 5.9125 3.9316 10.75 4.1284 10.75 0.19676 0 4.7479-3.2988 10.114-7.3307zm-108.24-12.68c26.131-4.4523 48.553-15.25 61.248-29.494 7.7007-8.64 7.965-9.4409 5.1793-15.695-2.2694-5.0955-2.3644-6.2887-2.4918-31.297-0.13112-25.746-0.78662-33.5-5.0298-59.5-0.85273-5.225-1.745-10.713-1.9828-12.195-5-31.217-11.75-38.918-27.52-31.401-39.46 18.82-77.46 22.621-115.4 11.544-43.63-12.738-50.77-1.63-40.85 63.547 3.5508 23.338 3.8053 26.516 3.8292 47.803l0.0255 22.803 6.778 7.3996c22.384 24.437 67.666 34.754 116.22 26.481zm-51-3.0444c-21.29-1.9913-31.51-5.3453-46.182-15.157-19.845-13.27-20.473-14.461-20.876-39.574-0.14351-8.9587-0.74692-18.409-1.3409-21-1.4318-6.2462-5.0972-34.264-6.0533-46.27-1.1683-14.672 0.0904-30.486 2.8504-35.811l2.2649-4.3699 6.1685 0.68231c3.3927 0.37527 7.9911 1.2934 10.219 2.0402 18.665 6.2578 61.343 8.2369 80.781 3.746 5.4071-1.2492 13.282-2.745 17.5-3.3239 11.762-1.6143 32.956-8.8869 38.717-13.286 8.401-6.4146 10.019-6.1207 14.558 2.6447 8.4832 16.382 14.427 78.982 9.5354 100.43-2.3072 10.119-2.0636 17.368 0.92533 27.527 3.8001 12.917 2.5311 14.298-25.566 27.827-15.181 7.3094-19.33 8.7286-30.5 10.433-6.05 0.92323-13.54 2.3169-16.644 3.097-6.0093 1.5101-22.334 1.672-36.356 0.3605zm-176.43-7.4722 6.5673-0.5899 2.1778-7.4024c1.1978-4.0713 3.3724-9.9255 4.8325-13.009l2.6547-5.6069-1.677-14.325c-3.4786-29.715-7.1226-34.98-14.098-20.371-3.6692 7.6843-6.6184 8.6215-13.83 4.395-12.788-7.4944-25.989 3.5275-31.293 26.127-4.7522 20.25 0.7367 29.429 18.635 31.162 9.2117 0.89183 12.384 0.84548 26.031-0.38041zm376.03-4.3288c39.149-29.726 17.69-66.613-25.257-43.417-8.0411 4.3432-7.9991 4.2165-2.8051 8.469 9.4462 7.7341 15.796 19.849 19.42 37.056 0.76912 3.6511 1.1922 3.5478 8.6421-2.109zm-279.43-52.15c-0.30915-8.525-1.4568-20.9-2.5503-27.5-10.317-62.267-4.7244-85.247 21.224-87.209l7.4102-0.56043-2.287-5.6285c-1.2579-3.0957-2.8669-8.4358-3.5756-11.867l-1.2886-6.2385-3.3885 3.2519c-9.6139 9.2263-20.014 28.513-29.648 54.985l-5.7262 15.733 2.5856 5.2848c5.567 11.379 7.7303 39.545 4.0896 53.249-0.87672 3.3-1.688 6.5715-1.8028 7.27-0.11482 0.69852 2.9412 5.7328 6.7912 11.187l7 9.9173 0.86427-3.1873c0.47534-1.753 0.61132-10.162 0.30218-18.687zm206.69 10.615c0.88216-3.5119 1.905-9.6245 2.2729-13.583 0.48179-5.1838 1.3484-8.1994 3.0969-10.776l2.4279-3.5777-2.5072-7.5888c-7.5577-22.875-6.0182-45.897 3.443-51.485 3.6708-2.1684 3.7495-1.4466-1.7318-15.886-12.172-32.064-25.882-52.878-39.31-59.677-9.2671-4.692-21.793-9.0481-20.636-7.1766 1.4028 2.2699 2.4117 19.468 1.6504 28.136-0.99788 11.362-1.761 10.318 5.8158 7.9596 13.597-4.2317 18.284-2.0688 25.171 11.615 10.408 20.678 18.167 70.664 16.393 105.6-1.0721 21.111 0.7838 28.903 3.9151 16.437zm109.74 0.13c26.926-16.062 31.646-30.906 16.425-51.645-11.07-15.082-15.38-17.019-23.122-10.39-1.7888 1.5316-6.0093 5.1473-9.3788 8.0348-7.3894 6.3323-8.5783 6.4648-10.176 1.1338-2.06-6.8758-8.9674-12.34-10.512-8.3151-1.5547 4.0515 4.9615 43.431 7.1866 43.431 2.6168 0 12.491 9.2063 16.636 15.511 5.0597 7.6958 4.0784 7.526 12.941 2.2394zm-335.73-34.05c-0.12097-13.311-1.7754-25.373-4.4424-32.388l-0.95318-2.507-5.4549 5.5427c-8.9411 9.0851-8.0984 15.959 4.7093 38.416 5.5709 9.768 6.3025 8.6882 6.1412-9.0639zm246.87-3.7669c3.2533-5.857-1.6998-37.725-6.6297-42.655-4.4026-4.4026-6.9519 13.008-4.2366 28.934 3.476 20.388 5.643 23.124 10.866 13.72zm-117.24-77.896c29.258-5.3631 35.567-8.5912 36.662-18.759 1.8948-17.587-0.009-38.517-3.7124-40.805-7.8162-4.8307-57.238-2.6584-82.749 3.6371-16.216 4.0016-34.214 13.066-34.186 17.216 0.0316 4.6603 3.2094 15.361 6.901 23.239l3.8666 8.2512 8.3588 2.5388c9.2369 2.8055 21.986 6.268 25.859 7.0232 5.3048 1.0343 28.028-0.32952 39-2.3407z"
       id="path4157" />
    <path
       inkscape:connector-curvature="0"
       id="path5583"
       d="m 184.35188,96.017756 c 0.58801,12.292694 -1.45246,24.655084 -0.74928,36.870244 2.08845,11.84063 -0.0426,24.65553 6.23252,35.52228 7.57232,8.97595 -2.76245,16.1926 -1.19427,25.91665 1.16518,7.01603 3.03604,16.62949 10.83622,19.02132 8.81186,5.61223 11.11941,-4.33054 9.46818,-11.21601 -1.69932,-9.02923 4.71624,-15.87418 4.23681,-24.58961 2.22002,-8.06781 -7.67454,-12.24652 -5.86883,-20.27415 -0.54667,-11.758 0.27259,-23.57605 -0.7001,-35.34423 3.54534,-7.17149 9.1269,-17.97085 0.71166,-24.00031 -5.85957,-4.554918 -15.53074,-8.038197 -21.06649,-1.423702 l -0.92294,0.01052 -0.98348,-0.493003 0,0 z"
       style="fill:#fffffb;fill-opacity:1;fill-rule:evenodd;stroke:none;stroke-width:1px;stroke-linecap:butt;stroke-linejoin:miter;stroke-opacity:1;filter:url(#filter5638)" />
  </g>
</svg>
